#!OML:ASF G:\JayActor3\Patient Classification 1\Patient 1\Session 2\male.ASF
:FULLY-SPECIFIED
:DEGREES
2770
root -2.37699 15.5462 -6.46148 725.947 -80.7533 -1435.58
lowerback 19.4194 4.62206 8.09592
upperback 7.94468 7.05472 4.59136
thorax -1.78562 3.33745 -1.05716
lowerneck -9.07698 4.87922 3.07805
upperneck 0.594077 6.38718 -6.2631
head 2.10592 3.02597 -2.25429
rclavicle 6.52014e-014 2.06736e-014
rhumerus -12.416 8.32102 -69.6667
rradius 82.6802
rwrist 7.0914
rhand -45.6176 23.729
rfingers 7.12502
rthumb -18.3779 -5.42289
lclavicle 6.52014e-014 2.06736e-014
lhumerus -50.6348 -12.6313 83.537
lradius 71.6692
lwrist 15.5793
lhand -37.553 17.5586
lfingers 7.12502
lthumb -10.6081 47.2709
rfemur -18.3833 -14.0301 26.8088
rtibia 59.1757
rfoot -37.3868 -7.55684
rtoes -1.91041
lfemur -57.5878 17.4818 -46.0345
ltibia 39.2063
lfoot 2.48023 4.9052
ltoes -8.87156
2771
root -2.57554 15.5591 -6.45787 727.058 -81.0448 -1436.86
lowerback 19.2794 4.7716 8.06084
upperback 7.92514 7.23236 4.49787
thorax -1.71488 3.43139 -1.15709
lowerneck -8.76748 5.48141 3.57242
upperneck 0.486997 7.1561 -6.51594
head 2.08887 3.41333 -2.39153
rclavicle 2.38542e-014 6.04305e-014
rhumerus -12.7585 8.32295 -69.9973
rradius 82.5533
rwrist 7.21068
rhand -45.6459 23.8777
rfingers 7.12502
rthumb -18.4051 -5.27158
lclavicle 2.38542e-014 6.04305e-014
lhumerus -50.7036 -12.6918 83.3636
lradius 71.609
lwrist 15.7035
lhand -37.6707 17.684
lfingers 7.12502
lthumb -10.7216 47.3904
rfemur -17.6534 -14.0561 26.6674
rtibia 59.5068
rfoot -35.9857 -6.95252
rtoes -2.89188
lfemur -56.867 17.7707 -45.6676
ltibia 39.1044
lfoot 2.33269 5.35959
ltoes -5.81468
2772
root -2.77331 15.5694 -6.45429 728.118 -81.3023 -1438.07
lowerback 19.1576 4.89582 8.0164
upperback 7.89476 7.37908 4.38656
thorax -1.66585 3.50964 -1.26664
lowerneck -8.45122 6.04566 4.04067
upperneck 0.351838 7.87725 -6.73433
head 2.06164 3.77802 -2.5163
rclavicle -1.27222e-014 -1.74931e-014
rhumerus -13.0934 8.35646 -70.3478
rradius 82.3951
rwrist 7.33237
rhand -45.7024 24.0443
rfingers 7.12502
rthumb -18.4594 -5.09984
lclavicle -1.27222e-014 -1.74931e-014
lhumerus -50.6978 -12.7609 83.1775
lradius 71.5478
lwrist 15.8371
lhand -37.8306 17.8319
lfingers 7.12502
lthumb -10.8759 47.5303
rfemur -17.1284 -14.1019 26.4847
rtibia 60.1292
rfoot -34.3485 -6.32229
rtoes -3.61215
lfemur -56.1069 17.9033 -45.1307
ltibia 39.2428
lfoot 1.77255 5.57417
ltoes -3.34072
2773
root -2.9694 15.5768 -6.45049 729.065 -81.5171 -1439.13
lowerback 19.0296 4.99483 7.95388
upperback 7.84843 7.4923 4.26
thorax -1.63347 3.57114 -1.37645
lowerneck -8.13352 6.56698 4.46709
upperneck 0.200175 8.54553 -6.91433
head 2.02632 4.1172 -2.62457
rclavicle 1.04958e-013 -7.95139e-015
rhumerus -13.4155 8.4177 -70.7041
rradius 82.2084
rwrist 7.4412
rhand -45.7572 24.2153
rfingers 7.12502
rthumb -18.5122 -4.92379
lclavicle 1.04958e-013 -7.95139e-015
lhumerus -50.6118 -12.8419 82.9918
lradius 71.4766
lwrist 15.9749
lhand -38.009 17.9644
lfingers 7.12502
lthumb -11.0479 47.6536
rfemur -16.8615 -14.1697 26.257
rtibia 61.065
rfoot -32.4438 -5.68544
rtoes -3.8907
lfemur -55.341 17.861 -44.4625
ltibia 39.5713
lfoot 0.876797 5.59998
ltoes -1.65169
2774
root -3.16356 15.582 -6.44624 729.803 -81.6872 -1439.93
lowerback 18.8799 5.07036 7.86167
upperback 7.78642 7.57111 4.12022
thorax -1.61165 3.61561 -1.47679
lowerneck -7.80958 7.04209 4.8397
upperneck 0.0364403 9.15749 -7.05026
head 1.98079 4.42919 -2.71265
rclavicle 8.74653e-014 -7.31528e-014
rhumerus -13.7263 8.50485 -71.0549
rradius 81.9966
rwrist 7.53091
rhand -45.8036 24.383
rfingers 7.12502
rthumb -18.5568 -4.75189
lclavicle 8.74653e-014 -7.31528e-014
lhumerus -50.4377 -12.933 82.8151
lradius 71.383
lwrist 16.1094
lhand -38.1738 18.066
lfingers 7.12502
lthumb -11.2069 47.7467
rfemur -16.873 -14.2581 25.9726
rtibia 62.3126
rfoot -30.2522 -5.10484
rtoes -3.56209
lfemur -54.5958 17.658 -43.7192
ltibia 40.0187
lfoot -0.208402 5.51036
ltoes -0.599982
2775
root -3.35574 15.5859 -6.44176 730.204 -81.8161 -1440.37
lowerback 18.7147 5.12795 7.72494
upperback 7.71457 7.62013 3.96987
thorax -1.59942 3.64494 -1.55805
lowerneck -7.47973 7.46673 5.16024
upperneck -0.134628 9.70725 -7.14763
head 1.92534 4.71082 -2.78315
rclavicle 1.59028e-014 9.54166e-015
rhumerus -14.0342 8.60426 -71.3918
rradius 81.772
rwrist 7.60116
rhand -45.8308 24.5422
rfingers 7.12502
rthumb -18.5829 -4.59015
lclavicle 1.59028e-014 9.54166e-015
lhumerus -50.1688 -13.0448 82.6577
lradius 71.2674
lwrist 16.2416
lhand -38.3077 18.1174
lfingers 7.12502
lthumb -11.3361 47.791
rfemur -17.1461 -14.3564 25.6179
rtibia 63.8489
rfoot -27.7802 -4.64206
rtoes -2.40269
lfemur -53.8884 17.3551 -42.9821
ltibia 40.5149
lfoot -1.31076 5.35947
ltoes 0.190621
2776
root -3.54599 15.5901 -6.43751 730.155 -81.9054 -1440.35
lowerback 18.5592 5.16952 7.5346
upperback 7.64063 7.64147 3.81084
thorax -1.60299 3.65949 -1.61579
lowerneck -7.14151 7.84184 5.43967
upperneck -0.310881 10.1954 -7.21627
head 1.86046 4.96215 -2.84153
rclavicle -1.41535e-013 -1.59028e-014
rhumerus -14.3475 8.70219 -71.7144
rradius 81.5433
rwrist 7.66049
rhand -45.8435 24.6851
rfingers 7.12502
rthumb -18.5952 -4.4461
lclavicle -1.41535e-013 -1.59028e-014
lhumerus -49.8042 -13.1868 82.5262
lradius 71.1343
lwrist 16.3799
lhand -38.4068 18.1048
lfingers 7.12502
lthumb -11.4316 47.7732
rfemur -17.6328 -14.4608 25.1787
rtibia 65.6332
rfoot -25.0417 -4.37017
rtoes -0.456109
lfemur -53.2118 17.0286 -42.3234
ltibia 41.008
lfoot -2.30309 5.27438
ltoes 1.17233
